{"title":"YoungAnalTryouts ~ Santa Claus in my ass FULL HD","uid":10826163,"size":1925503145,"categoryP":"porn","categoryS":"movie_clips","magnet":"?xt=urn:btih:3d4619148e7159df9485947d0ed073ebb942c648&amp;dn=YoungAnalTryouts+%7E+Santa+Claus+in+my+ass+FULL+HD&amp;tr=udp%3A%2F%2Ftracker.openbittorrent.com%3A80&amp;tr=udp%3A%2F%2Fopen.demonii.com%3A1337&amp;tr=udp%3A%2F%2Ftracker.coppersurfer.tk%3A6969&amp;tr=udp%3A%2F%2Fexodus.desync.com%3A6969","seeders":0,"leechers":2,"uploader":"ThousandPeers","files":-1,"time":1408581502,"description":"Format                                   : Windows Media\nFile size                                : 1.79 GiB\nDuration                                 : 30mn 28s\nOverall bit rate mode                    : Constant\nOverall bit rate                         : 8 418 Kbps\nMaximum Overall bit rate                 : 8 447 Kbps\nEncoded date                             : UTC 2012-01-30 00:06:30.410\n\nVideo\nID                                       : 2\nFormat                                   : VC-1\nFormat profile                           : Main\nCodec ID                                 : WMV3\nCodec ID/Info                            : Windows Media Video 9\nCodec ID/Hint                            : WMV3\nDescription of the codec                 : Windows Media Video 9 - Professional\nDuration                                 : 30mn 28s\nBit rate mode                            : Constant\nBit rate                                 : 8 192 Kbps\nWidth                                    : 1 920 pixels\nHeight                                   : 1 088 pixels\nDisplay aspect ratio                     : 16:9\nFrame rate                               : 25.000 fps\nBit depth                                : 8 bits\nScan type                                : Progressive\nCompression mode                         : Lossy\nBits/(Pixel*Frame)                       : 0.157\nStream size                              : 1.74 GiB (97%)\nLanguage                                 : Russian\n\nAudio\nID                                       : 1\nFormat                                   : WMA\nFormat version                           : Version 2\nCodec ID                                 : 161\nCodec ID/Info                            : Windows Media Audio\nDescription of the codec                 : Windows Media Audio 9.2 - 192 kbps, 48 kHz, stereo 1-pass CBR\nDuration                                 : 30mn 28s\nBit rate mode                            : Constant\nBit rate                                 : 192 Kbps\nChannel(s)                               : 2 channels\nSampling rate                            : 48.0 KHz\nBit depth                                : 16 bits\nStream size                              : 41.9 MiB (2%)\nLanguage                                 : Russian","torrent":{"xt":"urn:btih:3d4619148e7159df9485947d0ed073ebb942c648","amp;dn":"YoungAnalTryouts+%7E+Santa+Claus+in+my+ass+FULL+HD","amp;tr":["udp%3A%2F%2Ftracker.openbittorrent.com%3A80","udp%3A%2F%2Fopen.demonii.com%3A1337","udp%3A%2F%2Ftracker.coppersurfer.tk%3A6969","udp%3A%2F%2Fexodus.desync.com%3A6969"],"infoHash":"3d4619148e7159df9485947d0ed073ebb942c648","infoHashBuffer":{"type":"Buffer","data":[61,70,25,20,142,113,89,223,148,133,148,125,14,208,115,235,185,66,198,72]},"announce":[],"urlList":[]}}